<mxfile host="app.diagrams.net" modified="2020-10-08T11:11:28.939Z" agent="5.0 (Windows NT 6.1; Win64; x64) AppleWebKit/537.36 (KHTML, like Gecko) Chrome/72.0.3626.109 Safari/537.36" etag="AHHMqCI2bcYVU70hzQf9" version="13.7.8" type="github">
  <diagram id="6a731a19-8d31-9384-78a2-239565b7b9f0" name="Page-1">
    <mxGraphModel dx="1120" dy="764" grid="1" gridSize="10" guides="1" tooltips="1" connect="1" arrows="1" fold="1" page="1" pageScale="1" pageWidth="1169" pageHeight="827" background="#ffffff" math="0" shadow="0">
      <root>
        <mxCell id="0" />
        <mxCell id="1" parent="0" />
        <mxCell id="iVOtvtOhrICC6fko7LgI-57" value="" style="ellipse;whiteSpace=wrap;html=1;" vertex="1" parent="1">
          <mxGeometry x="420" y="240" width="120" height="80" as="geometry" />
        </mxCell>
        <mxCell id="iVOtvtOhrICC6fko7LgI-67" value="" style="endArrow=none;html=1;entryX=0.5;entryY=1;entryDx=0;entryDy=0;" edge="1" parent="1" target="iVOtvtOhrICC6fko7LgI-57">
          <mxGeometry width="50" height="50" relative="1" as="geometry">
            <mxPoint x="480" y="370" as="sourcePoint" />
            <mxPoint x="620" y="340" as="targetPoint" />
          </mxGeometry>
        </mxCell>
        <mxCell id="iVOtvtOhrICC6fko7LgI-68" value="" style="shape=parallelogram;perimeter=parallelogramPerimeter;whiteSpace=wrap;html=1;fixedSize=1;" vertex="1" parent="1">
          <mxGeometry x="420" y="370" width="120" height="60" as="geometry" />
        </mxCell>
        <mxCell id="iVOtvtOhrICC6fko7LgI-69" value="" style="endArrow=none;html=1;entryX=0.5;entryY=1;entryDx=0;entryDy=0;" edge="1" parent="1" target="iVOtvtOhrICC6fko7LgI-68">
          <mxGeometry width="50" height="50" relative="1" as="geometry">
            <mxPoint x="480" y="480" as="sourcePoint" />
            <mxPoint x="510" y="430" as="targetPoint" />
          </mxGeometry>
        </mxCell>
        <mxCell id="iVOtvtOhrICC6fko7LgI-70" value="" style="rounded=0;whiteSpace=wrap;html=1;" vertex="1" parent="1">
          <mxGeometry x="420" y="480" width="120" height="60" as="geometry" />
        </mxCell>
        <mxCell id="iVOtvtOhrICC6fko7LgI-71" value="" style="endArrow=none;html=1;entryX=0.5;entryY=1;entryDx=0;entryDy=0;" edge="1" parent="1" target="iVOtvtOhrICC6fko7LgI-70">
          <mxGeometry width="50" height="50" relative="1" as="geometry">
            <mxPoint x="480" y="600" as="sourcePoint" />
            <mxPoint x="500" y="540" as="targetPoint" />
          </mxGeometry>
        </mxCell>
        <mxCell id="iVOtvtOhrICC6fko7LgI-74" value="" style="endArrow=none;html=1;exitX=0.5;exitY=1;exitDx=0;exitDy=0;" edge="1" parent="1" source="iVOtvtOhrICC6fko7LgI-78">
          <mxGeometry width="50" height="50" relative="1" as="geometry">
            <mxPoint x="470" y="850" as="sourcePoint" />
            <mxPoint x="480" y="920" as="targetPoint" />
          </mxGeometry>
        </mxCell>
        <mxCell id="iVOtvtOhrICC6fko7LgI-76" value="" style="endArrow=none;html=1;" edge="1" parent="1">
          <mxGeometry width="50" height="50" relative="1" as="geometry">
            <mxPoint x="480" y="760" as="sourcePoint" />
            <mxPoint x="479.5" y="670" as="targetPoint" />
          </mxGeometry>
        </mxCell>
        <mxCell id="iVOtvtOhrICC6fko7LgI-77" value="" style="shape=hexagon;perimeter=hexagonPerimeter2;whiteSpace=wrap;html=1;fixedSize=1;" vertex="1" parent="1">
          <mxGeometry x="420" y="600" width="120" height="80" as="geometry" />
        </mxCell>
        <mxCell id="iVOtvtOhrICC6fko7LgI-78" value="" style="rounded=0;whiteSpace=wrap;html=1;" vertex="1" parent="1">
          <mxGeometry x="420" y="760" width="120" height="60" as="geometry" />
        </mxCell>
        <mxCell id="iVOtvtOhrICC6fko7LgI-79" value="" style="rounded=0;whiteSpace=wrap;html=1;" vertex="1" parent="1">
          <mxGeometry x="420" y="920" width="120" height="60" as="geometry" />
        </mxCell>
        <mxCell id="iVOtvtOhrICC6fko7LgI-80" value="" style="endArrow=none;html=1;exitX=1;exitY=0.5;exitDx=0;exitDy=0;" edge="1" parent="1" source="iVOtvtOhrICC6fko7LgI-77">
          <mxGeometry width="50" height="50" relative="1" as="geometry">
            <mxPoint x="580" y="670" as="sourcePoint" />
            <mxPoint x="640" y="640" as="targetPoint" />
          </mxGeometry>
        </mxCell>
        <mxCell id="iVOtvtOhrICC6fko7LgI-81" value="" style="endArrow=none;html=1;" edge="1" parent="1">
          <mxGeometry width="50" height="50" relative="1" as="geometry">
            <mxPoint x="640" y="1010" as="sourcePoint" />
            <mxPoint x="640" y="640" as="targetPoint" />
          </mxGeometry>
        </mxCell>
        <mxCell id="iVOtvtOhrICC6fko7LgI-82" value="" style="endArrow=none;html=1;" edge="1" parent="1">
          <mxGeometry width="50" height="50" relative="1" as="geometry">
            <mxPoint x="500" y="1010" as="sourcePoint" />
            <mxPoint x="640" y="1010" as="targetPoint" />
          </mxGeometry>
        </mxCell>
        <mxCell id="iVOtvtOhrICC6fko7LgI-83" value="" style="endArrow=none;html=1;entryX=0;entryY=0.5;entryDx=0;entryDy=0;" edge="1" parent="1" target="iVOtvtOhrICC6fko7LgI-77">
          <mxGeometry width="50" height="50" relative="1" as="geometry">
            <mxPoint x="320" y="640" as="sourcePoint" />
            <mxPoint x="390" y="620" as="targetPoint" />
          </mxGeometry>
        </mxCell>
        <mxCell id="iVOtvtOhrICC6fko7LgI-84" value="" style="endArrow=none;html=1;" edge="1" parent="1">
          <mxGeometry width="50" height="50" relative="1" as="geometry">
            <mxPoint x="320" y="1000" as="sourcePoint" />
            <mxPoint x="320" y="640" as="targetPoint" />
          </mxGeometry>
        </mxCell>
        <mxCell id="iVOtvtOhrICC6fko7LgI-85" value="" style="endArrow=none;html=1;" edge="1" parent="1">
          <mxGeometry width="50" height="50" relative="1" as="geometry">
            <mxPoint x="320" y="1000" as="sourcePoint" />
            <mxPoint x="480" y="1000" as="targetPoint" />
          </mxGeometry>
        </mxCell>
        <mxCell id="iVOtvtOhrICC6fko7LgI-86" value="" style="endArrow=none;html=1;entryX=0.5;entryY=1;entryDx=0;entryDy=0;" edge="1" parent="1" target="iVOtvtOhrICC6fko7LgI-79">
          <mxGeometry width="50" height="50" relative="1" as="geometry">
            <mxPoint x="480" y="1000" as="sourcePoint" />
            <mxPoint x="540" y="1000" as="targetPoint" />
          </mxGeometry>
        </mxCell>
        <mxCell id="iVOtvtOhrICC6fko7LgI-89" value="" style="endArrow=classic;html=1;" edge="1" parent="1">
          <mxGeometry width="50" height="50" relative="1" as="geometry">
            <mxPoint x="500" y="1010" as="sourcePoint" />
            <mxPoint x="500" y="1070" as="targetPoint" />
          </mxGeometry>
        </mxCell>
      </root>
    </mxGraphModel>
  </diagram>
</mxfile>
